# Blender 4.5.3 LTS
# www.blender.org
mtllib BeanFlower_closed_white_optim.mtl
o petals
v 0.332936 0.022989 0.001027
v 0.332936 0.022989 0.001027
v 0.330370 -0.007250 -0.011124
v 0.332737 0.020687 -0.003623
v 0.332173 0.014130 -0.007565
v 0.331339 0.004320 -0.010199
v 0.699870 0.032894 0.004477
v 0.330980 0.000062 0.013208
v 0.332937 0.022990 0.003996
v 0.331722 0.008835 0.012507
v 0.332358 0.016274 0.010510
v 0.332787 0.021245 0.007521
v 0.330026 -0.011394 -0.011124
v 0.327881 -0.037559 -0.000608
v 0.329201 -0.021407 -0.010323
v 0.328506 -0.029895 -0.008044
v 0.328044 -0.035567 -0.004632
v 0.327881 -0.037559 0.003541
v 0.329850 -0.013504 0.013208
v 0.328030 -0.035728 0.007240
v 0.328455 -0.030513 0.010377
v 0.329093 -0.022710 0.012472
v 0.332737 0.020687 -0.003623
v 0.378061 0.023695 -0.014449
v 0.332173 0.014130 -0.007565
v 0.604435 0.041355 -0.044285
v 0.504937 0.018242 -0.042539
v 0.331339 0.004320 -0.010199
v 0.573076 -0.021986 -0.054804
v 0.369745 -0.000858 -0.020692
v 0.330370 -0.007250 -0.011124
v 0.560600 0.066528 -0.014503
v 0.355001 0.033714 -0.001126
v 0.332937 0.022990 0.003996
v 0.332787 0.021245 0.007521
v 0.361310 0.024011 0.018370
v 0.480277 0.047081 0.021246
v 0.594901 0.100421 0.041075
v 0.332358 0.016274 0.010510
v 0.331722 0.008835 0.012507
v 0.409335 0.015350 0.026011
v 0.596431 0.070283 0.056554
v 0.330980 0.000062 0.013208
v 0.564640 0.031152 0.056804
v 0.608692 -0.153122 -0.019117
v 0.433399 -0.093225 0.001511
v 0.327881 -0.037559 -0.000608
v 0.328044 -0.035567 -0.004632
v 0.345744 -0.052009 -0.003314
v 0.437725 -0.083589 -0.020914
v 0.647172 -0.140759 -0.024834
v 0.328506 -0.029895 -0.008044
v 0.361731 -0.040511 -0.017000
v 0.587717 -0.096789 -0.047838
v 0.634917 -0.090687 -0.046816
v 0.329201 -0.021407 -0.010323
v 0.468333 -0.034915 -0.040634
v 0.330026 -0.011394 -0.011124
v 0.327881 -0.037559 0.003541
v 0.607022 -0.152394 0.022326
v 0.463129 -0.090135 0.027483
v 0.357692 -0.050970 0.014132
v 0.328030 -0.035728 0.007240
v 0.591229 -0.099148 0.049270
v 0.328455 -0.030513 0.010377
v 0.635279 -0.092063 0.048197
v 0.489952 -0.055800 0.043022
v 0.364276 -0.031461 0.021175
v 0.329093 -0.022710 0.012472
v 0.329850 -0.013504 0.013208
v 0.691757 -0.027732 -0.021347
v 0.649641 0.095591 -0.007890
v 0.646683 0.126938 0.012717
v 0.698530 -0.061225 0.015496
v 0.588207 0.120514 0.001908
v 0.591646 0.062140 -0.034865
v 0.619596 -0.018932 -0.052381
v 0.651619 -0.151366 0.017960
v 0.654341 0.079465 0.031050
vn 0.0971 0.9953 -0.0000
vn 0.6916 0.4412 -0.5719
vn 0.5341 0.2698 -0.8012
vn -0.3230 -0.9464 0.0036
vn 0.0249 -0.9995 0.0185
vn -0.2529 -0.0564 0.9658
vn -0.1802 -0.2853 0.9414
vn -0.4131 -0.4445 0.7949
vn -0.3341 -0.8118 0.4790
vn -0.1192 -0.1152 -0.9862
vn -0.1960 -0.2598 -0.9456
vn -0.1954 -0.5022 -0.8424
vn 0.8663 -0.4564 -0.2031
vn 0.2606 -0.9304 -0.2577
vn -0.3656 -0.8275 -0.4261
vn -0.0940 -0.0766 0.9926
vn -0.0882 0.3378 0.9371
vn -0.2117 0.9758 0.0552
vn -0.1779 0.8568 0.4840
vn -0.2500 0.0979 -0.9633
vn 0.0421 0.1434 -0.9888
vn -0.0997 0.3592 -0.9279
vn -0.4336 0.8148 -0.3849
vn 0.0171 0.8131 -0.5818
vn -0.2284 0.9734 0.0163
vn -0.4371 0.8994 -0.0000
vn 0.5403 -0.2593 0.8005
vn 0.4081 0.2356 -0.8820
vn 0.1309 0.4749 -0.8702
vn 0.2838 0.3849 0.8782
vn -0.2862 -0.2351 0.9289
vn -0.9965 0.0831 -0.0000
vn -0.6289 -0.7775 -0.0000
vn -0.2151 -0.2612 0.9410
vn 0.0944 -0.4294 0.8982
vn -0.1797 -0.4861 0.8552
vn -0.4890 -0.7822 0.3859
vn -0.3799 -0.8126 0.4419
vn 0.0441 -0.0762 -0.9961
vn -0.2245 -0.0481 -0.9733
vn -0.2138 -0.0476 -0.9757
vn 0.0407 -0.4194 -0.9069
vn -0.1928 -0.2619 -0.9456
vn -0.3191 -0.2213 -0.9215
vn -0.3648 -0.4578 -0.8108
vn -0.3255 -0.5015 -0.8016
vn 0.4208 0.0438 0.9061
vn -0.3370 -0.8397 -0.4258
vn -0.6177 -0.6946 -0.3687
vn 0.0444 -0.0443 0.9980
vn -0.1833 0.0273 0.9827
vn -0.2016 0.0344 0.9789
vn -0.1496 0.0420 0.9879
vn -0.8842 0.2699 0.3811
vn -0.2414 0.0976 0.9655
vn 0.2999 0.4478 0.8423
vn -0.2086 0.1757 0.9621
vn -0.3190 0.2711 0.9082
vn -0.3175 0.7889 0.5261
vn -0.3492 0.5048 0.7895
vn -0.2761 0.8291 0.4862
vn -0.2076 0.2961 -0.9323
vn -0.1703 0.0821 -0.9820
vn -0.1413 0.0619 -0.9880
vn -0.0621 0.1934 -0.9792
vn -0.1779 0.4272 -0.8865
vn -0.2297 0.5351 -0.8130
vn 0.0861 0.5411 -0.8365
vn -0.1996 0.8500 -0.4875
vn -0.4407 0.4597 -0.7710
vn -0.2391 0.0198 -0.9708
vn 0.7127 0.3498 0.6081
vn 0.5676 0.0878 0.8186
vn 0.9759 -0.0391 -0.2149
vn 0.4320 0.2259 -0.8731
vn -0.1822 0.8619 0.4733
vn 0.8388 -0.3172 -0.4426
vn 0.5798 -0.2044 -0.7887
vn 0.3964 0.0135 -0.9180
vt 0.224327 0.500000
vt 0.266957 0.500000
vt 0.679762 0.750000
vt 0.617228 0.724714
vt 0.764136 0.725826
vt 0.404084 0.725826
vt 0.780347 0.500000
vt 0.816569 0.500000
vt 0.875000 0.500000
vt 0.625000 0.250000
vt 0.566569 0.250000
vt 0.530347 0.250000
vt 0.474327 0.250000
vt 0.308303 0.500000
vt 0.308303 0.500000
vt 0.375000 0.500000
vt 0.441697 0.500000
vt 0.483043 0.500000
vt 0.245675 0.601564
vt 0.292476 0.675136
vt 0.198536 0.675088
vt 0.208371 0.699946
vt 0.436316 0.250000
vt 0.446299 0.200194
vt 0.375000 0.250000
vt 0.375000 0.128089
vt 0.410478 0.075000
vt 0.444620 0.116303
vt 0.186316 0.500000
vt 0.125000 0.500000
vt 0.155698 0.544468
vt 0.155787 0.615123
vt 0.408019 0.672998
vt 0.469002 0.617509
vt 0.491276 0.670734
vt 0.332105 0.610160
vt 0.407636 0.547584
vt 0.308303 0.699894
vt 0.193451 0.725913
vt 0.277334 0.536425
vt 0.555392 0.080077
vt 0.810378 0.620890
vt 0.846128 0.543668
vt 0.875000 0.611662
vt 0.701488 0.675231
vt 0.863891 0.675000
vt 0.737197 0.538610
vt 0.547931 0.500000
vt 0.500155 0.500000
vt 0.525369 0.551531
vt 0.547931 0.695726
vt 0.491942 0.700003
vt 0.625000 0.500000
vt 0.625000 0.682040
vt 0.547931 0.636175
vt 0.702069 0.500000
vt 0.749845 0.500000
vt 0.636284 0.559099
vt 0.125000 0.699969
vt 0.625000 0.047702
vt 0.558404 0.024280
vt 0.625000 0.024174
vt 0.375000 0.202385
vt 0.406645 0.468355
vt 0.383224 0.433303
vt 0.375000 0.391957
vt 0.375000 0.349327
vt 0.382561 0.311316
vt 0.404092 0.279092
vt 0.436316 0.257561
vt 0.566569 0.257205
vt 0.597277 0.277723
vt 0.617795 0.308431
vt 0.625000 0.344653
vt 0.625000 0.375155
vt 0.615497 0.422931
vt 0.588434 0.463434
vt 0.547931 0.490497
vt 0.441697 0.491776
vt 0.125000 0.675000
vt 0.420352 0.700052
vt 0.570459 0.052319
vt 0.415806 0.050012
vt 0.389723 0.024385
vt 0.571161 0.165194
vt 0.591615 0.205360
vt 0.850068 0.707225
vt 0.721565 0.712279
vt 0.473404 0.000000
vt 0.427875 0.766601
s 0
usemtl Material
f 18/1/1 47/2/1 59/1/1
f 7/3/2 72/4/2 73/5/2
f 7/3/3 71/6/3 72/4/3
f 34/7/1 12/8/1 35/8/1
f 35/8/1 11/9/1 39/9/1
f 39/10/1 10/11/1 40/11/1
f 40/11/1 8/12/1 43/12/1
f 70/13/1 8/12/1 19/13/1
f 47/2/1 17/14/1 48/15/1
f 48/15/1 16/16/1 52/16/1
f 52/16/1 15/17/1 56/17/1
f 56/17/1 13/18/1 58/18/1
f 46/19/4 45/20/4 60/21/4
f 45/20/5 78/22/5 60/21/5
f 22/23/1 70/13/1 19/13/1
f 69/23/6 68/24/6 70/13/6
f 21/25/1 69/23/1 22/23/1
f 61/26/7 64/27/7 67/28/7
f 20/29/1 65/30/1 21/30/1
f 62/31/8 65/30/8 63/29/8
f 18/1/1 63/29/1 20/29/1
f 60/21/9 61/32/9 46/19/9
f 54/33/10 57/34/10 29/35/10
f 50/36/11 53/37/11 57/34/11
f 50/36/12 54/33/12 45/20/12
f 78/22/13 51/38/13 74/39/13
f 45/20/14 51/38/14 78/22/14
f 46/19/15 49/40/15 50/36/15
f 64/27/16 44/41/16 67/28/16
f 37/42/17 36/43/17 41/44/17
f 32/45/18 37/42/18 42/46/18
f 33/47/19 36/43/19 37/42/19
f 6/48/1 31/49/1 3/49/1
f 30/50/20 31/49/20 28/48/20
f 26/51/21 77/52/21 29/35/21
f 5/53/1 28/48/1 6/48/1
f 76/54/22 26/51/22 27/55/22
f 4/56/1 25/53/1 5/53/1
f 2/57/1 23/56/1 4/56/1
f 33/47/23 23/56/23 1/57/23
f 37/42/24 24/58/24 33/47/24
f 37/42/25 32/45/25 24/58/25
f 13/18/1 31/49/1 58/18/1
f 2/57/1 34/7/1 1/57/1
f 34/7/26 33/47/26 1/57/26
f 74/39/27 66/59/27 78/22/27
f 72/4/28 71/6/28 77/52/28
f 76/54/29 72/4/29 26/51/29
f 38/60/30 79/61/30 73/62/30
f 18/1/1 14/2/1 47/2/1
f 68/24/31 69/23/31 65/25/31 62/63/31
f 16/64/32 17/65/32 14/66/32 18/67/32 20/68/32 21/69/32 22/70/32 19/13/32 8/12/32 10/71/32 11/72/32 12/73/32 9/74/32 2/75/32 4/76/32 5/77/32 6/78/32 3/49/32 13/18/32 15/79/32
f 34/7/1 9/7/1 12/8/1
f 35/8/1 12/8/1 11/9/1
f 39/10/1 11/10/1 10/11/1
f 40/11/1 10/11/1 8/12/1
f 70/13/1 43/12/1 8/12/1
f 47/2/1 14/2/1 17/14/1
f 48/15/1 17/14/1 16/16/1
f 52/16/1 16/16/1 15/17/1
f 56/17/1 15/17/1 13/18/1
f 59/1/33 47/2/33 49/40/33
f 22/23/1 69/23/1 70/13/1
f 21/25/1 65/25/1 69/23/1
f 68/24/34 62/63/34 61/26/34 67/28/34
f 64/80/35 60/21/35 78/22/35 66/59/35
f 20/29/1 63/29/1 65/30/1
f 61/32/36 60/21/36 64/80/36
f 63/29/37 59/1/37 49/40/37 62/31/37
f 18/1/1 59/1/1 63/29/1
f 62/31/38 49/40/38 46/19/38 61/32/38
f 29/35/39 77/52/39 55/81/39 54/33/39
f 30/50/40 53/37/40 56/17/40 58/18/40
f 57/34/41 53/37/41 30/50/41
f 54/33/42 55/81/42 51/38/42 45/20/42
f 54/33/43 50/36/43 57/34/43
f 52/16/44 56/17/44 53/37/44
f 52/16/45 53/37/45 49/40/45 48/15/45
f 50/36/46 49/40/46 53/37/46
f 42/82/47 66/83/47 74/84/47 79/61/47
f 45/20/48 46/19/48 50/36/48
f 49/40/49 47/2/49 48/15/49
f 44/41/50 64/27/50 66/83/50 42/82/50
f 41/85/51 68/24/51 67/28/51 44/41/51
f 43/12/52 70/13/52 68/24/52 36/86/52
f 68/24/53 41/85/53 36/86/53
f 42/46/54 38/87/54 75/88/54 32/45/54
f 40/11/55 43/12/55 36/86/55
f 38/60/56 42/82/56 79/61/56
f 42/82/57 41/85/57 44/41/57
f 39/10/58 40/11/58 36/86/58
f 42/46/59 37/42/59 41/44/59
f 36/43/60 35/8/60 39/9/60
f 35/8/61 36/43/61 33/47/61 34/7/61
f 28/48/62 25/53/62 24/58/62 30/50/62
f 6/48/1 28/48/1 31/49/1
f 30/50/63 27/55/63 57/34/63
f 27/55/64 29/35/64 57/34/64
f 27/55/65 26/51/65 29/35/65
f 5/53/1 25/53/1 28/48/1
f 30/50/66 24/58/66 76/54/66 27/55/66
f 25/53/67 23/56/67 33/47/67 24/58/67
f 4/56/1 23/56/1 25/53/1
f 72/4/68 76/54/68 75/88/68 73/5/68
f 24/58/69 32/45/69 76/54/69
f 32/45/70 75/88/70 76/54/70
f 2/57/1 1/57/1 23/56/1
f 13/18/1 3/49/1 31/49/1
f 58/18/71 31/49/71 30/50/71
f 2/57/1 9/7/1 34/7/1
f 7/89/72 73/62/72 79/61/72
f 7/89/73 79/61/73 74/84/73
f 7/90/74 74/39/74 71/6/74
f 26/51/75 72/4/75 77/52/75
f 75/88/76 38/87/76 73/5/76
f 74/39/77 51/38/77 71/6/77
f 71/6/78 51/38/78 55/81/78
f 71/6/79 55/81/79 77/52/79
o sepal
v 0.258920 0.009344 -0.000286
v 0.378223 0.038659 -0.000286
v 0.258035 0.000269 -0.005496
v 0.257149 -0.008805 -0.000286
v 0.374104 -0.066023 -0.000285
v 0.376777 -0.051720 0.022661
v 0.258035 0.000269 0.004924
v 0.389920 0.022386 0.020800
v 0.273991 -0.027725 0.005941
v 0.319640 -0.046862 0.015339
v 0.322080 -0.033455 0.023099
v 0.275488 -0.012384 0.014749
v 0.322369 -0.015656 0.027298
v 0.323619 0.003519 0.027298
v 0.277604 0.009311 0.014749
v 0.325342 0.021178 0.023099
v 0.326661 0.034694 0.015339
v 0.261485 -0.008001 0.006466
v 0.261982 -0.002902 0.007678
v 0.262521 0.002617 0.007678
v 0.263018 0.007716 0.006466
v -0.000089 0.001739 -0.008000
v 0.258881 -0.002406 -0.007391
v 0.258881 -0.006735 -0.003061
v -0.000089 -0.006261 0.000000
v 0.258881 -0.006735 0.003061
v 0.258881 -0.002406 0.007391
v -0.000089 0.001739 0.008000
v 0.258881 0.003717 0.007391
v 0.258881 0.008047 0.003061
v -0.000089 0.009739 0.000000
v 0.258881 0.008047 -0.003061
v 0.258881 0.003717 -0.007391
v 0.198628 0.019274 -0.008000
v 0.111439 0.023596 -0.005657
v 0.111439 0.023596 0.005657
v 0.111439 0.034933 0.005657
v 0.111439 0.034933 -0.005657
v 0.198623 0.013598 -0.005657
v 0.198622 0.011251 0.000000
v 0.198623 0.013598 0.005657
v 0.198628 0.019274 0.008000
v 0.198635 0.024955 0.005657
v 0.198637 0.027308 0.000000
v 0.198635 0.024955 -0.005657
vn -0.0437 -0.3812 -0.9235
vn 0.0436 0.3809 -0.9236
vn 0.2231 0.6893 0.6893
vn 0.3045 0.9525 -0.0000
vn -0.2860 -0.9582 -0.0000
vn -0.2038 -0.6923 0.6923
vn 0.0101 -0.0000 -0.9999
vn 0.1051 0.9182 0.3820
vn -0.2288 -0.4678 -0.8537
vn -0.2831 -0.8858 -0.3677
vn 0.9451 -0.0945 -0.3127
vn -0.2393 -0.4891 -0.8388
vn -0.3053 0.0221 0.9520
vn -0.2863 -0.3117 0.9060
vn -0.0684 -0.2280 0.9712
vn -0.1236 0.5031 -0.8553
vn -0.2099 0.8541 -0.4758
vn -0.5425 0.0529 0.8384
vn -0.1920 0.6940 -0.6940
vn -0.1053 -0.9185 0.3812
vn -0.1920 0.6940 0.6940
vn 0.0304 0.2284 0.9731
vn -0.1269 -0.3784 -0.9169
vn 0.1096 0.8154 0.5685
vn 0.2231 0.6893 -0.6893
vn 0.0436 0.3809 0.9236
vn -0.2167 0.3661 0.9050
vn 0.0101 -0.0000 0.9999
vn 0.0926 0.0056 0.9957
vn -0.2038 -0.6923 -0.6923
vn 0.0216 0.4962 0.8679
vn -0.0437 -0.3812 0.9235
vn -0.2810 0.9046 0.3207
vn -0.0000 -0.0000 -1.0000
vn -0.2831 -0.8858 0.3677
vn -0.1269 -0.3784 0.9169
vn 0.1071 0.3790 0.9192
vn 0.2658 0.8901 0.3703
vn -0.5962 0.2403 0.7660
vn 0.2658 0.8901 -0.3703
vn -0.0881 0.9961 -0.0000
vn -0.4019 0.8042 0.4378
vn 0.1071 0.3790 -0.9192
vn -0.0000 -0.0000 1.0000
vn 0.0439 -0.0017 -0.9990
vn 0.1517 -0.6989 0.6989
vn 0.1051 0.9182 -0.3820
vn -0.6314 -0.1206 0.7660
vn -0.3963 -0.4048 0.8241
vn 0.1517 -0.6989 -0.6989
vn -0.3613 -0.9239 -0.1264
vn -0.1053 -0.9185 -0.3812
vn -0.7446 0.3855 0.5449
vn -0.5370 -0.1452 0.8310
vn -0.3835 -0.2667 0.8842
vn -0.1394 -0.8330 0.5355
vn -0.4988 0.2463 0.8310
vn -0.4370 -0.8522 0.2877
vn -0.1515 -0.4744 0.8672
vn 0.0878 -0.9961 -0.0000
vn -0.2665 -0.2172 0.9390
vn -0.2261 0.2462 0.9425
vn -0.8051 -0.2343 0.5449
vn -0.3223 0.4948 0.8071
vn -0.9953 0.0971 -0.0000
vt 1.000000 0.874978
vt 0.875000 0.874978
vt 0.875000 0.243616
vt 0.125000 0.874978
vt 0.125000 0.243616
vt 0.437500 1.000000
vt 0.312500 1.000000
vt 0.375000 0.874978
vt 0.187500 1.000000
vt 0.250000 0.874978
vt 0.812500 1.000000
vt 0.687500 1.000000
vt 0.750000 0.874978
vt 0.562500 1.000000
vt 0.625000 0.874978
vt 0.000000 0.874978
vt 0.062500 1.000000
vt 0.937500 1.000000
vt 0.375000 0.243616
vt 0.500000 1.000000
vt 0.750000 0.010000
vt 0.990000 0.250000
vt 0.250000 0.490000
vt 0.080294 0.419706
vt 0.080294 0.080294
vt 0.250000 0.010000
vt 0.437500 0.663265
vt 0.218750 0.574534
vt 0.281250 0.574534
vt 0.281250 0.829932
vt 0.218750 0.829932
vt 0.187500 0.663265
vt 0.343750 0.829932
vt 0.000000 0.500000
vt 0.093750 0.829932
vt 0.750000 0.490000
vt 0.250000 0.500000
vt 0.000000 0.000000
vt 0.250000 0.000000
vt 0.625000 0.243616
vt 0.500000 0.000000
vt 0.156250 0.829932
vt 1.000000 1.000000
vt 0.500000 0.874978
vt 0.312500 0.663265
vt 0.125000 1.000000
vt 0.156250 0.574534
vt 0.750000 0.000000
vt 0.343750 0.574534
vt 0.510000 0.250000
vt 0.406250 0.829932
vt 0.500000 0.500000
vt 0.375000 1.000000
s 0
usemtl Material.001
f 113/91/80 118/92/80 114/93/80
f 124/94/81 113/91/81 117/95/81
f 108/96/82 109/97/82 122/98/82
f 109/97/83 111/99/83 123/100/83
f 103/101/84 105/102/84 119/103/84
f 105/102/85 106/104/85 120/105/85
f 113/106/86 112/107/86 102/108/86
f 122/98/87 123/100/87 116/109/87
f 84/110/88 83/111/88 82/112/88
f 103/101/89 119/103/89 118/92/89
f 81/113/90 87/114/90 85/115/90 84/116/90
f 88/117/91 83/111/91 84/116/91
f 99/118/92 98/119/92 92/120/92 93/121/92
f 93/121/93 94/122/93 99/118/93
f 92/120/94 90/123/94 85/115/94
f 82/112/95 80/124/95 81/113/95
f 96/125/96 81/113/96 80/126/96
f 99/118/97 86/127/97 98/119/97
f 101/128/98 110/129/98 117/95/98
f 120/105/99 115/130/99 119/103/99
f 110/129/100 107/131/100 116/109/100
f 95/132/101 93/121/101 87/114/101
f 102/108/102 118/92/102 113/91/102
f 96/125/103 87/114/103 81/133/103
f 111/99/104 112/107/104 124/94/104
f 122/98/105 116/109/105 121/134/105
f 91/135/106 92/120/106 98/119/106
f 106/104/107 108/96/107 121/134/107
f 93/121/108 92/120/108 85/115/108 87/114/108
f 102/108/109 103/101/109 118/92/109
f 95/132/110 87/136/110 96/125/110
f 120/105/111 121/134/111 115/130/111
f 94/122/112 95/132/112 100/137/112
f 117/95/113 113/91/113 114/93/113 101/128/113
f 105/102/114 120/105/114 119/103/114
f 106/104/115 121/134/115 120/105/115
f 108/96/116 122/98/116 121/134/116
f 109/97/117 123/100/117 122/98/117
f 86/127/118 99/118/118 100/137/118
f 111/99/119 124/94/119 123/100/119
f 117/95/120 110/129/120 116/109/120 123/100/120
f 96/125/121 80/126/121 100/137/121
f 112/107/122 113/106/122 124/94/122
f 116/109/123 107/131/123 115/130/123 121/134/123
f 82/112/124 81/113/124 84/116/124
f 107/131/125 104/138/125 115/130/125
f 124/94/126 117/95/126 123/100/126
f 97/139/127 98/119/127 86/140/127
f 90/123/128 97/139/128 89/141/128
f 104/138/129 101/128/129 114/93/129
f 84/116/130 89/141/130 88/117/130
f 118/92/131 119/103/131 114/93/131
f 86/127/132 100/137/132 80/126/132
f 91/135/133 98/119/133 97/139/133
f 97/139/134 83/142/134 88/117/134 89/141/134
f 85/115/135 89/141/135 84/116/135
f 94/122/136 100/137/136 99/118/136
f 90/123/137 91/135/137 97/139/137
f 89/141/138 85/143/138 90/123/138
f 115/130/139 104/138/139 114/93/139 119/103/139
f 91/135/140 90/123/140 92/120/140
f 94/122/141 93/121/141 95/132/141
f 86/140/142 83/142/142 97/139/142
f 100/137/143 95/132/143 96/125/143
f 86/140/144 80/126/144 82/112/144 83/111/144
