# Blender 4.5.3 LTS
# www.blender.org
mtllib SoybeanPod_optim.mtl
o fruit
v 0.194619 0.088403 -0.004495
v 1.062150 0.491837 -0.004495
v 1.076587 0.411179 -0.036146
v 1.087812 0.414258 0.008883
v 1.045002 0.449004 0.036018
v 0.994484 0.475090 0.028151
v 0.976278 0.490710 -0.006229
v 1.003749 0.471147 -0.040924
v 0.388670 0.095466 -0.084965
v 0.500787 0.099648 -0.069127
v 0.577909 0.138274 -0.062304
v 0.641584 0.170643 -0.070183
v 0.722074 0.196367 -0.099301
v 0.773066 0.218778 -0.079712
v 0.877416 0.308564 -0.062136
v 1.052330 0.439225 -0.044054
v 0.994807 0.350608 -0.076891
v 0.720175 0.154839 -0.079012
v 0.656597 0.132010 -0.064692
v 0.479643 0.046243 -0.063936
v 0.948959 0.286032 -0.061053
v 0.871123 0.221635 -0.052694
v 0.627491 0.085719 -0.049779
v 0.796699 0.124848 -0.048847
v 0.403954 0.009166 -0.041436
v 0.285802 0.062332 -0.020355
v 0.984817 0.243660 -0.029737
v 0.899681 0.208827 -0.035008
v 0.750716 0.106015 -0.052717
v 1.045229 0.295039 -0.024242
v 0.495720 0.006776 -0.037657
v 1.087205 0.368203 -0.004495
v 0.759215 0.077325 -0.017440
v 0.649818 0.063787 -0.029122
v 0.921044 0.203097 0.001194
v 0.806586 0.102191 -0.004942
v 0.561728 0.013436 0.001745
v 0.479840 -0.009475 0.002748
v 0.405790 0.001243 0.026040
v 0.281286 0.060495 0.006108
v 1.043123 0.300485 0.021342
v 0.985739 0.251623 0.026329
v 0.751031 0.085599 0.028058
v 0.646396 0.052348 0.002065
v 0.804597 0.113211 0.021034
v 1.063742 0.392694 0.034955
v 0.896422 0.215353 0.031291
v 0.785931 0.133007 0.048301
v 0.629213 0.083847 0.040170
v 0.483140 0.019739 0.041943
v 0.998092 0.348910 0.064524
v 0.867984 0.245758 0.049738
v 0.724337 0.146187 0.066357
v 0.458905 0.056986 0.060590
v 0.291276 0.094926 0.027831
v 0.392833 0.106305 0.072753
v 0.946818 0.291575 0.053883
v 0.578655 0.136082 0.053109
v 0.499282 0.115906 0.061567
v 0.436677 0.121623 0.079111
v 0.956064 0.387536 0.076518
v 0.864193 0.299075 0.051439
v 0.727089 0.198316 0.087280
v 0.649539 0.166449 0.062924
v 0.845145 0.337010 0.043179
v 0.711997 0.223864 0.085040
v 0.555358 0.193068 0.043585
v 0.493023 0.167579 0.050621
v 0.665634 0.281832 0.039591
v 0.655785 0.233003 0.057384
v 0.371249 0.195921 0.035661
v 0.281526 0.132150 0.019958
v 0.901004 0.452433 0.019275
v 0.419034 0.207217 0.034438
v 0.828948 0.361908 0.028537
v 0.523780 0.209327 0.027161
v 0.283829 0.153076 0.003793
v 0.659230 0.301511 0.017256
v 0.487946 0.217479 0.013066
v 0.410675 0.225994 -0.011685
v 0.364710 0.215302 -0.020539
v 0.820175 0.376467 0.006405
v 0.814123 0.373689 -0.015543
v 0.656949 0.305742 -0.012201
v 0.550033 0.235484 0.005173
v 0.490270 0.219271 -0.022378
v 0.911678 0.450541 -0.036490
v 0.845325 0.389418 -0.032672
v 0.282983 0.147663 -0.019878
v 0.827196 0.349649 -0.045443
v 0.665804 0.293707 -0.040452
v 0.545041 0.223757 -0.032645
v 0.429156 0.186404 -0.063141
v 0.679630 0.271165 -0.060233
v 0.874635 0.365196 -0.056389
v 0.639906 0.221448 -0.064514
v 0.382082 0.141111 -0.085455
v 0.295191 0.117344 -0.038037
v 0.958070 0.388543 -0.091197
v 0.780540 0.259868 -0.071682
v 0.702084 0.226277 -0.098459
v 0.553593 0.175397 -0.056832
v 0.487487 0.167110 -0.062208
v 0.435340 0.133550 -0.102059
v 0.927015 0.338259 -0.084365
v 0.306137 0.096641 -0.041157
vn -0.3108 -0.0211 -0.9502
vn 0.6498 0.3756 -0.6609
vn -0.2632 -0.3813 -0.8862
vn 0.9312 0.2649 -0.2503
vn -0.2916 -0.9495 -0.1157
vn -0.2529 -0.4627 0.8497
vn 0.6840 0.3378 0.6466
vn -0.3220 0.1144 0.9398
vn 0.2070 0.6273 0.7508
vn -0.4755 0.5700 0.6701
vn -0.0204 0.9061 0.4225
vn -0.5690 0.8058 -0.1640
vn -0.0015 0.8706 -0.4921
vn -0.3861 0.3546 -0.8516
vn 0.3017 0.5364 -0.7882
vn -0.3042 -0.0541 -0.9511
vn -0.4537 -0.1065 -0.8848
vn -0.4825 0.0814 -0.8721
vn -0.4130 0.1327 -0.9010
vn 0.2094 0.5956 -0.7755
vn -0.0147 0.6440 -0.7649
vn -0.0621 0.3096 -0.9488
vn -0.2505 0.0856 -0.9643
vn -0.1679 0.5786 -0.7981
vn -0.2278 0.6104 -0.7586
vn -0.3847 0.3647 -0.8479
vn -0.1945 0.6018 -0.7746
vn -0.2200 0.5637 -0.7962
vn -0.0157 0.7897 -0.6132
vn -0.3384 0.4948 -0.8004
vn -0.2611 0.6933 -0.6716
vn -0.5955 0.4787 -0.6452
vn -0.3608 0.8119 -0.4590
vn -0.6310 0.7609 -0.1515
vn -0.4824 0.8675 -0.1218
vn -0.2748 0.9610 0.0306
vn -0.5237 0.8366 0.1607
vn -0.0198 0.9248 0.3801
vn -0.6000 0.5382 0.5919
vn -0.4404 0.6072 0.6613
vn -0.5119 0.5597 0.6517
vn -0.2690 0.3741 0.8875
vn -0.1367 0.5599 0.8172
vn -0.1057 0.4521 0.8857
vn -0.2086 0.5414 0.8145
vn -0.2445 0.3200 0.9153
vn -0.3571 0.3825 0.8522
vn 0.0375 0.1796 0.9830
vn -0.1736 0.0979 0.9799
vn 0.0873 0.2536 0.9634
vn 0.1342 0.1649 0.9771
vn 0.2613 -0.0122 0.9652
vn 0.0611 -0.2347 0.9701
vn 0.3554 0.0981 0.9295
vn 0.2493 -0.1866 0.9503
vn -0.0221 -0.2605 0.9652
vn -0.1090 -0.2390 0.9649
vn 0.3269 -0.2495 0.9115
vn -0.3386 -0.4298 0.8370
vn 0.1661 -0.3529 0.9208
vn 0.1507 -0.4799 0.8643
vn 0.2408 -0.3810 0.8926
vn 0.5265 -0.2382 0.8161
vn 0.0760 -0.7514 0.6554
vn 0.5292 -0.5414 0.6534
vn 0.3346 -0.7450 0.5771
vn 0.7924 -0.1798 0.5829
vn 0.2465 -0.9447 0.2161
vn 0.4030 -0.8850 0.2334
vn 0.6092 -0.7122 0.3488
vn 0.8510 -0.5155 0.1009
vn -0.1762 -0.9782 -0.1101
vn 0.3354 -0.8437 -0.4192
vn 0.1503 -0.9334 -0.3259
vn 0.6014 -0.6543 -0.4584
vn 0.3727 -0.8571 -0.3556
vn 0.3363 -0.6893 -0.6417
vn 0.2100 -0.4812 -0.8511
vn 0.0863 -0.6351 -0.7676
vn 0.5669 -0.2340 -0.7899
vn 0.2343 -0.4417 -0.8660
vn 0.2760 -0.4092 -0.8697
vn -0.0411 -0.4558 -0.8892
vn 0.2207 -0.3519 -0.9097
vn -0.0512 -0.2770 -0.9595
vn -0.0185 -0.1066 -0.9941
vn 0.1645 -0.3436 -0.9246
vn 0.3428 -0.2244 -0.9122
vn -0.0424 -0.1567 -0.9867
vn -0.1279 -0.4486 -0.8846
vn 0.4187 0.0639 -0.9059
vn -0.4683 -0.0770 -0.8802
vn 0.5173 0.1876 -0.8350
vn 0.2682 0.1658 -0.9490
vn -0.2881 -0.1660 -0.9431
vn -0.1452 0.0820 -0.9860
vn 0.2172 0.4170 -0.8826
vn -0.4668 0.4656 -0.7519
vn -0.4421 0.0690 -0.8943
vn -0.1692 0.5715 -0.8030
vn -0.4577 0.4326 -0.7768
vn -0.0722 0.3142 -0.9466
vn -0.4448 0.3820 -0.8101
vn -0.2905 0.3508 -0.8903
vn 0.0163 0.4496 -0.8931
vn -0.6665 0.7266 -0.1670
vn -0.3330 0.4225 -0.8430
vn 0.2066 0.5868 -0.7829
vn -0.0616 0.7802 -0.6224
vn -0.2024 0.7758 -0.5977
vn -0.4658 0.7520 -0.4664
vn -0.1301 0.9517 -0.2780
vn -0.5604 0.8091 -0.1769
vn -0.4459 0.8950 0.0097
vn -0.4047 0.9099 0.0913
vn 0.0915 0.9942 0.0563
vn -0.2406 0.8975 0.3697
vn -0.5101 0.7931 0.3329
vn -0.2941 0.7061 0.6441
vn -0.1152 0.7044 0.7004
vn 0.0150 0.8816 0.4717
vn -0.4424 0.7942 0.4165
vn 0.0568 0.4664 0.8827
vn -0.2482 0.8257 0.5066
vn -0.0830 0.4476 0.8904
vn -0.3923 0.3647 0.8444
vn -0.2717 0.3774 0.8853
vn -0.1913 0.5063 0.8409
vn -0.3740 0.2264 0.8994
vn 0.1348 -0.1109 0.9846
vn 0.2821 0.2314 0.9311
vn 0.0499 0.2127 0.9758
vn -0.1752 0.0922 0.9802
vn -0.4235 0.1146 0.8986
vn -0.3090 0.0516 0.9497
vn 0.0938 0.4496 0.8883
vn -0.2704 -0.0756 0.9598
vn -0.1405 -0.3624 0.9214
vn -0.0326 -0.0342 0.9989
vn -0.0492 -0.2248 0.9732
vn -0.0384 -0.2874 0.9570
vn -0.1177 -0.4397 0.8904
vn 0.1862 -0.3744 0.9084
vn 0.3526 0.0998 0.9305
vn -0.3281 -0.4173 0.8475
vn 0.1980 -0.3966 0.8964
vn 0.0927 -0.5025 0.8596
vn 0.3258 -0.2487 0.9121
vn 0.3000 -0.6622 0.6866
vn 0.6339 0.1968 0.7480
vn 0.3952 -0.3787 0.8369
vn 0.0701 -0.8026 0.5923
vn 0.2279 -0.7898 0.5695
vn 0.6441 -0.7574 0.1074
vn 0.3971 -0.5918 0.7015
vn 0.4897 -0.5112 0.7063
vn 0.7517 -0.2577 0.6071
vn 0.4630 -0.8026 0.3760
vn 0.5699 -0.8148 0.1064
vn -0.4184 -0.9021 -0.1057
vn -0.3804 -0.4228 -0.8225
vn 0.4022 -0.8729 -0.2760
vn 0.9677 0.0585 -0.2452
vn -0.0086 -0.9266 -0.3761
vn 0.2562 -0.9275 -0.2724
vn 0.5035 -0.7164 -0.4830
vn 0.5948 -0.6519 -0.4703
vn 0.2395 -0.5252 -0.8166
vn 0.1613 -0.7463 -0.6458
vn 0.7474 -0.2643 -0.6096
vn 0.0201 -0.5484 -0.8360
vn 0.3853 -0.3305 -0.8616
vn 0.4140 -0.3993 -0.8180
vn 0.3014 -0.4719 -0.8285
vn 0.0411 0.1321 -0.9904
vn 0.0070 -0.3974 -0.9176
vn 0.1360 -0.1278 -0.9824
vn 0.3250 -0.2204 -0.9197
vn 0.1755 -0.4386 -0.8814
vn 0.2593 0.1396 -0.9557
vn 0.1559 -0.1178 -0.9807
vn 0.3944 0.0831 -0.9152
vn -0.0064 -0.4029 -0.9152
vn -0.1482 -0.1954 -0.9695
vn -0.1849 -0.4246 -0.8863
vn 0.1466 -0.2215 -0.9641
vt 0.750000 0.250000
vt 0.659163 0.467026
vt 0.833377 0.474300
vt 0.250000 0.250000
vt 0.392936 0.435817
vt 0.276112 0.487428
vt 0.954495 0.358598
vt 0.457425 0.192773
vt 0.971476 0.179947
vt 0.772432 0.020229
vt 0.276285 0.019455
vt 0.588493 0.079207
vt 0.083909 0.080550
vt 0.517169 0.205773
vt 0.020216 0.259417
vt 0.540019 0.355236
vt 0.155780 0.466296
vt 0.028218 0.571429
vt 0.000000 0.547619
vt 0.041116 0.547619
vt 0.013479 0.523810
vt 0.075336 0.514378
vt 0.033964 0.749875
vt 0.016438 0.693224
vt 0.074143 0.699031
vt 0.021366 0.928571
vt 0.011606 0.904762
vt 0.079473 0.884793
vt 0.108143 0.571429
vt 0.077066 0.598883
vt 0.111001 0.748726
vt 0.026082 0.802713
vt 0.126101 0.854529
vt 0.018254 0.871543
vt 0.170011 0.928571
vt 0.078847 0.972631
vt 0.211845 0.547619
vt 0.173518 0.887524
vt 0.172164 0.649448
vt 0.202886 0.609055
vt 0.170031 0.748988
vt 0.234166 0.571429
vt 0.219124 0.855525
vt 0.233074 0.747964
vt 0.175900 0.512818
vt 0.291849 0.513557
vt 0.302179 0.925846
vt 0.235211 0.969346
vt 0.296647 0.610543
vt 0.268746 0.656578
vt 0.298001 0.747955
vt 0.342471 0.571429
vt 0.286669 0.863167
vt 0.352148 0.862320
vt 0.352288 0.749518
vt 0.384702 0.511127
vt 0.351069 0.547619
vt 0.403909 0.646800
vt 0.339328 0.632151
vt 0.421102 0.603413
vt 0.420313 0.859834
vt 0.467148 0.753316
vt 0.376227 0.969318
vt 0.474696 0.927732
vt 0.502602 0.547619
vt 0.484566 0.571429
vt 0.417369 0.716278
vt 0.507685 0.642997
vt 0.494664 0.696289
vt 0.485168 0.858221
vt 0.503721 0.754660
vt 0.559929 0.843446
vt 0.550431 0.928571
vt 0.566015 0.897655
vt 0.505417 0.979657
vt 0.563451 0.572925
vt 0.499536 0.595238
vt 0.613233 0.657338
vt 0.554138 0.735437
vt 0.625282 0.768228
vt 0.701710 0.505090
vt 0.678325 0.547619
vt 0.505127 0.520522
vt 0.630929 0.576982
vt 0.676258 0.730331
vt 0.672425 0.904762
vt 0.612237 0.952381
vt 0.686438 0.928571
vt 0.731139 0.663088
vt 0.734370 0.854157
vt 0.641603 0.847553
vt 0.688874 0.772936
vt 0.688653 0.983408
vt 0.750333 0.952381
vt 0.778782 0.729745
vt 0.752642 0.771393
vt 0.797153 0.928571
vt 0.734127 0.571429
vt 0.840080 0.547619
vt 0.819187 0.663355
vt 0.736684 0.601732
vt 0.828365 0.580555
vt 0.839750 0.847013
vt 0.812055 0.904762
vt 0.861659 0.771429
vt 0.867043 0.734350
vt 0.886065 0.656304
vt 0.910970 0.574247
vt 0.955084 0.928571
vt 0.866392 0.972590
vt 0.933869 0.889461
vt 0.990262 0.547619
vt 0.958314 0.736038
vt 0.946522 0.684000
vt 0.989643 0.640866
vt 0.911536 0.836339
vt 0.995287 0.871446
vt 0.990864 0.904762
vt 0.978816 0.595238
vt 1.000000 0.571429
vt 1.000000 0.693263
vt 0.961779 0.978683
vt 1.000000 0.928571
vt 0.000000 0.595238
vt 0.000000 0.785714
vt 0.000000 0.753335
vt 0.009747 0.652925
vt 0.071337 0.640121
vt 0.000000 0.980600
vt 0.826986 0.507783
vt 0.983121 0.523196
vt 0.998183 0.753335
vt 0.989127 0.785714
vt 0.984850 0.809524
s 0
usemtl Material.001
f 1/1/1 98/2/1 106/3/1
f 2/4/2 3/5/2 16/6/2
f 1/1/3 106/3/3 26/7/3
f 2/4/4 4/8/4 3/5/4
f 1/1/5 26/7/5 40/9/5
f 1/1/6 40/9/6 55/10/6
f 2/4/7 5/11/7 4/8/7
f 1/1/8 55/10/8 72/12/8
f 2/4/9 6/13/9 5/11/9
f 1/1/10 72/12/10 77/14/10
f 2/4/11 7/15/11 6/13/11
f 1/1/12 77/14/12 89/16/12
f 2/4/13 8/17/13 7/15/13
f 1/1/14 89/16/14 98/2/14
f 2/4/15 16/6/15 8/17/15
f 104/18/16 9/19/16 97/20/16
f 97/20/17 106/21/17 98/22/17
f 101/23/18 12/24/18 96/25/18
f 99/26/19 105/27/19 95/28/19
f 93/29/20 103/30/20 104/18/20
f 94/31/21 100/32/21 101/23/21
f 90/33/22 15/34/22 100/32/22
f 95/28/23 15/34/23 90/33/23
f 87/35/24 8/36/24 99/26/24
f 93/29/25 97/20/25 81/37/25
f 87/35/26 95/28/26 88/38/26
f 92/39/27 103/30/27 86/40/27
f 91/41/28 90/33/28 94/31/28
f 86/40/29 93/29/29 80/42/29
f 91/41/30 94/31/30 92/39/30
f 83/43/31 90/33/31 91/41/31
f 88/38/32 90/33/32 83/43/32
f 84/44/33 83/43/33 91/41/33
f 81/37/34 89/45/34 77/46/34
f 73/47/35 7/48/35 87/35/35
f 79/49/36 85/50/36 86/40/36
f 78/51/37 84/44/37 85/50/37
f 74/52/38 79/49/38 80/42/38
f 73/47/39 82/53/39 75/54/39
f 69/55/40 78/51/40 85/50/40
f 72/56/41 71/57/41 77/46/41
f 67/58/42 69/55/42 76/59/42
f 68/60/43 67/58/43 76/59/43
f 65/61/44 75/54/44 66/62/44
f 6/63/45 73/47/45 61/64/45
f 56/65/46 60/66/46 71/57/46
f 66/62/47 69/55/47 70/67/47
f 58/68/48 67/58/48 68/60/48
f 64/69/49 70/67/49 67/58/49
f 62/70/50 65/61/50 66/62/50
f 62/70/51 66/62/51 63/71/51
f 52/72/52 62/70/52 63/71/52
f 51/73/53 61/64/53 57/74/53
f 51/73/54 5/75/54 61/64/54
f 54/76/55 59/77/55 60/66/55
f 49/78/56 64/69/56 58/68/56
f 49/78/57 53/79/57 64/69/57
f 52/72/58 63/71/58 48/80/58
f 40/81/59 39/82/59 55/83/59
f 50/84/60 49/78/60 54/76/60
f 43/85/61 48/80/61 53/79/61
f 51/73/62 57/74/62 42/86/62
f 46/87/63 51/73/63 41/88/63
f 44/89/64 43/85/64 49/78/64
f 35/90/65 47/91/65 45/92/65
f 42/86/66 47/91/66 35/90/66
f 4/93/67 46/87/67 32/94/67
f 33/95/68 43/85/68 44/89/68
f 33/95/69 36/96/69 43/85/69
f 35/90/70 45/92/70 36/96/70
f 32/94/71 41/88/71 30/97/71
f 38/98/72 39/82/72 25/99/72
f 34/100/73 37/101/73 31/102/73
f 33/95/74 44/89/74 34/100/74
f 28/103/75 35/90/75 36/96/75
f 28/103/76 27/104/76 35/90/76
f 24/105/77 33/95/77 29/106/77
f 23/107/78 31/102/78 20/108/78
f 29/106/79 34/100/79 23/107/79
f 17/109/80 3/110/80 30/97/80
f 21/111/81 27/104/81 28/103/81
f 21/111/82 17/109/82 27/104/82
f 20/108/83 25/99/83 9/112/83
f 24/105/84 29/106/84 18/113/84
f 19/114/85 23/107/85 11/115/85
f 21/111/86 22/116/86 15/117/86
f 105/118/87 17/109/87 21/111/87
f 10/119/88 20/108/88 104/120/88
f 12/121/89 19/114/89 11/115/89
f 15/117/90 105/118/90 21/111/90
f 16/122/91 17/109/91 99/123/91
f 97/20/92 9/19/92 106/21/92
f 103/30/93 10/124/93 104/18/93
f 14/125/94 13/126/94 101/23/94 100/32/94
f 101/23/95 13/126/95 12/24/95
f 11/127/96 102/128/96 96/25/96 12/24/96
f 99/26/97 8/36/97 16/129/97
f 98/22/98 89/45/98 81/37/98 97/20/98
f 95/28/99 105/27/99 15/34/99
f 93/29/100 104/18/100 97/20/100
f 94/31/101 101/23/101 96/25/101
f 94/31/102 90/33/102 100/32/102
f 87/35/103 99/26/103 95/28/103
f 102/128/104 92/39/104 94/31/104 96/25/104
f 92/39/105 102/128/105 103/30/105
f 87/35/106 88/38/106 82/53/106 73/47/106
f 88/38/107 95/28/107 90/33/107
f 86/40/108 103/30/108 93/29/108
f 80/42/109 93/29/109 81/37/109
f 87/35/110 7/48/110 8/36/110
f 84/44/111 91/41/111 92/39/111
f 85/50/112 92/39/112 86/40/112
f 85/50/113 84/44/113 92/39/113
f 82/53/114 88/38/114 83/43/114
f 84/44/115 78/51/115 82/53/115 83/43/115
f 80/42/116 79/49/116 86/40/116
f 80/42/117 81/37/117 71/57/117 74/52/117
f 77/46/118 71/57/118 81/37/118
f 78/51/119 69/55/119 75/54/119 82/53/119
f 79/49/120 76/59/120 85/50/120
f 74/52/121 76/59/121 79/49/121
f 76/59/122 69/55/122 85/50/122
f 76/59/123 74/52/123 60/66/123 68/60/123
f 6/63/124 7/48/124 73/47/124
f 71/57/125 60/66/125 74/52/125
f 73/47/126 75/54/126 65/61/126 61/64/126
f 67/58/127 70/67/127 69/55/127
f 66/62/128 75/54/128 69/55/128
f 71/57/129 72/56/129 55/83/129 56/65/129
f 58/68/130 59/77/130 54/76/130 49/78/130
f 60/66/131 59/77/131 68/60/131
f 59/77/132 58/68/132 68/60/132
f 58/68/133 64/69/133 67/58/133
f 64/69/134 66/62/134 70/67/134
f 62/70/135 61/64/135 65/61/135
f 5/75/136 6/63/136 61/64/136
f 64/69/137 63/71/137 66/62/137
f 53/79/138 63/71/138 64/69/138
f 52/72/139 57/74/139 62/70/139
f 57/74/140 61/64/140 62/70/140
f 56/65/141 54/76/141 60/66/141
f 54/76/142 56/65/142 39/82/142 50/84/142
f 53/79/143 48/80/143 63/71/143
f 51/73/144 46/87/144 5/75/144
f 55/83/145 39/82/145 56/65/145
f 52/72/146 47/91/146 42/86/146 57/74/146
f 49/78/147 43/85/147 53/79/147
f 47/91/148 52/72/148 48/80/148
f 49/78/149 50/84/149 37/101/149 44/89/149
f 4/93/150 5/75/150 46/87/150
f 41/88/151 51/73/151 42/86/151
f 39/82/152 38/98/152 50/84/152
f 38/98/153 37/101/153 50/84/153
f 42/86/154 27/104/154 30/97/154 41/88/154
f 43/85/155 45/92/155 48/80/155
f 45/92/156 47/91/156 48/80/156
f 32/94/157 46/87/157 41/88/157
f 43/85/158 36/96/158 45/92/158
f 27/104/159 42/86/159 35/90/159
f 40/81/160 26/130/160 25/99/160 39/82/160
f 26/130/161 106/131/161 9/112/161 25/99/161
f 34/100/162 44/89/162 37/101/162
f 32/94/163 3/110/163 4/93/163
f 31/102/164 38/98/164 25/99/164
f 31/102/165 37/101/165 38/98/165
f 24/105/166 36/96/166 33/95/166
f 24/105/167 28/103/167 36/96/167
f 23/107/168 34/100/168 31/102/168
f 29/106/169 33/95/169 34/100/169
f 30/97/170 3/110/170 32/94/170
f 20/108/171 31/102/171 25/99/171
f 24/105/172 22/116/172 28/103/172
f 27/104/173 17/109/173 30/97/173
f 22/116/174 21/111/174 28/103/174
f 10/124/175 103/30/175 102/128/175 11/127/175
f 23/107/176 19/114/176 18/113/176 29/106/176
f 20/108/177 10/119/177 11/115/177 23/107/177
f 24/105/178 13/132/178 14/133/178 22/116/178
f 13/132/179 24/105/179 18/113/179
f 14/133/180 100/134/180 22/116/180
f 100/134/181 15/117/181 22/116/181
f 16/122/182 3/110/182 17/109/182
f 104/120/183 20/108/183 9/112/183
f 12/121/184 18/113/184 19/114/184
f 12/121/185 13/132/185 18/113/185
f 105/118/186 99/123/186 17/109/186
o sepal
v 0.164287 0.091151 -0.001769
v 0.245153 0.138765 -0.000754
v 0.159229 0.089030 -0.003701
v 0.236966 0.121379 -0.015377
v 0.234905 0.109940 -0.019548
v 0.260907 0.101115 -0.031302
v 0.241061 0.084798 -0.019548
v 0.165998 0.080704 -0.004288
v 0.247914 0.072757 -0.015377
v 0.265004 0.058198 -0.009133
v 0.166291 0.078904 -0.001769
v 0.263390 0.056962 -0.000752
v 0.257584 0.061951 0.008244
v 0.252901 0.071943 0.013927
v 0.250395 0.083158 0.017185
v 0.160058 0.083965 0.003414
v 0.242817 0.097934 0.021755
v 0.249282 0.112281 0.016664
v 0.248626 0.123245 0.012654
v 0.240092 0.134386 0.007860
v 0.174953 0.103834 -0.006028
v 0.175631 0.099720 -0.009639
v 0.206136 0.110839 -0.017763
v 0.176647 0.093553 -0.012052
v 0.177845 0.086258 -0.012899
v 0.210198 0.085891 -0.020636
v 0.179043 0.078946 -0.012052
v 0.180059 0.072732 -0.009639
v 0.214766 0.065054 -0.012456
v 0.215431 0.062032 -0.009130
v 0.180738 0.068566 -0.006028
v 0.215605 0.060124 -0.005521
v 0.215399 0.059426 -0.001769
v 0.180976 0.067090 -0.001769
v 0.218125 0.054729 0.003636
v 0.178127 0.064812 0.004228
v 0.217347 0.060538 0.011746
v 0.216491 0.071388 0.017954
v 0.176145 0.076922 0.011274
v 0.213072 0.085137 0.021314
v 0.210115 0.100191 0.021314
v 0.173342 0.094005 0.011274
v 0.207833 0.114222 0.017954
v 0.206087 0.124976 0.011746
v 0.171360 0.106043 0.004228
v 0.169017 0.079957 -0.006387
v 0.164418 0.078038 0.004648
v 0.163760 0.082065 0.005618
v 0.163047 0.086416 0.005618
v 0.162388 0.090432 0.004648
v 0.161884 0.093509 0.002856
v 0.165781 0.085386 -0.007045
v 0.166771 0.081636 -0.005442
v 0.162270 0.078175 -0.000525
v 0.161791 0.079989 0.004001
v 0.160633 0.084375 0.005875
v 0.159476 0.088761 0.004001
v 0.158996 0.090597 -0.000525
v 0.164791 0.089131 -0.005442
v 0.032302 0.034198 -0.006438
v 0.033382 0.031168 -0.002974
v 0.033381 0.031170 0.001924
v 0.032301 0.034198 0.005388
v 0.030820 0.038509 0.005388
v 0.029792 0.041573 0.001924
v 0.029792 0.041574 -0.002974
v 0.030821 0.038510 -0.006438
v -0.000263 -0.001671 -0.005974
v 0.110262 0.076030 -0.006438
v 0.001535 -0.005090 -0.004378
v 0.110941 0.073085 -0.002974
v 0.002280 -0.006507 -0.000525
v 0.110940 0.073089 0.001924
v 0.001535 -0.005090 0.003329
v 0.110265 0.076018 0.005388
v -0.000263 -0.001671 0.004925
v 0.109348 0.080115 0.005388
v -0.002044 0.001715 0.003329
v 0.108712 0.083024 0.001924
v -0.002769 0.003093 -0.000525
v 0.108711 0.083034 -0.002974
v -0.002044 0.001715 -0.004378
v 0.109345 0.080131 -0.006438
vn -0.0456 0.3829 -0.9227
vn -0.1164 0.9058 -0.4073
vn -0.0406 0.3836 0.9226
vn 0.0542 -0.3803 0.9233
vn 0.0540 -0.3803 -0.9233
vn -0.2740 -0.4938 0.8253
vn -0.6131 0.5279 -0.5877
vn 0.0860 -0.7506 -0.6551
vn -0.4738 0.8120 -0.3409
vn -0.4423 0.3940 0.8057
vn -0.2567 0.0887 0.9624
vn -0.0671 -0.2080 -0.9758
vn -0.3002 -0.0568 0.9522
vn -0.1696 -0.4306 0.8865
vn -0.9504 0.1665 -0.2626
vn -0.4976 -0.1799 -0.8486
vn -0.6121 -0.7298 -0.3046
vn -0.5929 -0.2790 0.7554
vn -0.1748 -0.7851 -0.5943
vn -0.5428 -0.0889 0.8351
vn -0.2040 -0.8694 -0.4500
vn -0.1519 -0.9830 0.1034
vn -0.6340 0.0817 0.7690
vn -0.2134 -0.9584 -0.1897
vn -0.1973 -0.7448 -0.6374
vn -0.5575 -0.5938 -0.5802
vn -0.0842 -0.0153 -0.9963
vn -0.7385 -0.6052 -0.2973
vn -0.2307 0.0895 -0.9689
vn 0.4755 -0.8797 0.0007
vn 0.3564 -0.6619 0.6594
vn -0.9573 -0.2761 -0.0854
vn -0.3813 0.8951 0.2310
vn -0.3074 0.2649 0.9140
vn -0.0471 0.3497 -0.9357
vn -0.4832 -0.3844 -0.7866
vn -0.2382 0.3160 -0.9184
vn -0.0047 -0.7690 -0.6392
vn 0.0075 -0.5905 -0.8070
vn -0.3679 -0.4078 0.8357
vn -0.0778 -0.3678 -0.9267
vn 0.1033 -0.4878 0.8668
vn 0.0084 -0.3858 -0.9225
vn -0.4389 0.0322 -0.8980
vn 0.0928 -0.8441 0.5280
vn -0.0253 -0.7608 -0.6485
vn 0.0930 -0.4590 0.8836
vn -0.0585 -0.8142 0.5776
vn 0.1101 -0.2545 0.9608
vn -0.0137 -0.0027 0.9999
vn 0.0933 -0.2502 0.9637
vn -0.0559 -0.2501 0.9666
vn 0.0101 0.3304 0.9438
vn 0.0019 0.5002 0.8659
vn 0.0453 0.3455 0.9373
vn -0.1200 0.2127 0.9697
vn -0.0036 0.3929 0.9196
vn -0.2758 0.7464 -0.6057
vn -0.2196 -0.9255 -0.3084
vn -0.0000 -0.0000 -1.0000
vn 0.0986 -0.9951 0.0009
vn 0.5985 -0.5014 0.6249
vn 0.0757 -0.7541 0.6524
vn -0.0103 -0.0035 0.9999
vn -0.0093 -0.0021 1.0000
vn -0.6008 0.5018 0.6223
vn -0.1115 0.7507 0.6512
vn -0.7634 0.6460 -0.0000
vn -0.1488 0.9889 0.0020
vn -0.6008 0.5018 -0.6222
vn -0.1103 0.7517 -0.6502
vn -0.0103 -0.0035 -0.9999
vn -0.2835 0.6058 -0.7434
vn 0.7078 -0.6077 0.3603
vn -0.3512 0.6657 0.6585
vn -0.4650 0.8853 0.0010
vn -0.3515 0.6660 -0.6579
vn -0.2952 0.6926 -0.6582
vn -0.0105 -0.0024 -0.9999
vn -0.4798 -0.2705 -0.8346
vn 0.2902 -0.2753 -0.9165
vn -0.2316 -0.1493 -0.9613
vn 0.7712 -0.6366 0.0004
vn 0.2902 -0.2753 0.9165
vn -0.3372 0.2504 0.9075
vn -0.7263 0.5924 0.3485
vn -0.7263 0.5924 -0.3485
vn -0.2047 -0.6600 -0.7229
vn -0.3372 0.2504 -0.9075
vn -0.5390 -0.6699 -0.5106
vn 0.7077 -0.6077 -0.3603
vn 0.1090 -0.8571 -0.5034
vn -0.2259 -0.8702 -0.4379
vn -0.0576 -0.7445 -0.6651
vn -0.4709 0.2531 -0.8451
vn -0.4924 -0.2791 0.8244
vn 0.3560 -0.6610 -0.6606
vn -0.1192 0.9156 0.3841
vn -0.5409 0.1126 0.8335
vn 0.1091 -0.9186 0.3798
vn -0.5138 0.7251 0.4585
vn -0.0000 -0.0000 1.0000
vn 0.5983 -0.5013 -0.6251
vn -0.6845 0.6900 -0.2354
vn -0.3272 0.9429 0.0621
vn -0.3442 0.2924 -0.8922
vn -0.5560 -0.5831 -0.5924
vt 0.125000 1.000000
vt 0.000000 1.000000
vt 0.062500 0.874978
vt 0.250000 1.000000
vt 0.187500 0.874978
vt 0.500000 1.000000
vt 0.375000 1.000000
vt 0.437500 0.874978
vt 0.625000 1.000000
vt 0.562500 0.874978
vt 1.000000 1.000000
vt 0.875000 1.000000
vt 0.937500 0.874978
vt 0.343750 0.829932
vt 0.343750 0.574534
vt 0.406250 0.829932
vt 0.750000 0.490000
vt 0.093750 0.574534
vt 0.062500 0.663265
vt 0.812500 0.874978
vt 0.937500 0.663265
vt 0.156250 0.574534
vt 0.156250 0.829932
vt 0.093750 0.829932
vt 0.812500 0.663265
vt 0.843750 0.829932
vt 0.812500 1.000000
vt 0.218750 0.574534
vt 0.281250 0.574534
vt 0.281250 0.829932
vt 0.218750 0.829932
vt 0.187500 0.663265
vt 0.250000 0.500000
vt 0.687500 0.663265
vt 0.656250 0.574534
vt 0.750000 0.663265
vt 0.500000 0.663265
vt 0.750000 0.010000
vt 0.625000 0.500000
vt 0.562500 0.663265
vt 0.510000 0.250000
vt 0.500000 0.829932
vt 0.468750 0.829932
vt 0.562500 0.829932
vt 0.531250 0.829932
vt 0.312500 0.663265
vt 0.593750 0.829932
vt 0.625000 0.663265
vt 0.500000 0.500000
vt 0.718750 0.829932
vt 0.750000 1.000000
vt 0.687500 0.874978
vt 0.687500 0.243616
vt 0.812500 0.243616
vt 0.562500 0.243616
vt 0.919706 0.419706
vt 0.919706 0.080294
vt 0.062500 1.000000
vt 0.687500 1.000000
vt 0.437500 0.663265
vt 0.562500 1.000000
vt 0.875000 0.500000
vt 0.437500 1.000000
vt 0.312500 1.000000
vt 0.187500 1.000000
vt 0.937500 0.243616
vt 0.062500 0.243616
vt 0.625000 0.125022
vt 0.500000 0.125022
vt 0.437500 0.243616
vt 0.375000 0.125022
vt 0.312500 0.243616
vt 0.312500 0.874978
vt 0.250000 0.125022
vt 0.187500 0.243616
vt 0.125000 0.125022
vt 0.000000 0.125022
vt 0.875000 0.663265
vt 0.750000 0.125022
vt 0.875000 0.125022
vt 1.000000 0.125022
vt 0.000000 0.500000
s 0
usemtl Material.001
f 165/135/187 158/136/187 189/137/187
f 164/138/188 165/135/188 187/139/188
f 162/140/189 163/141/189 183/142/189
f 161/143/190 162/140/190 181/144/190
f 158/145/191 159/146/191 175/147/191
f 144/148/192 153/149/192 143/150/192
f 107/151/193 157/152/193 151/153/193
f 159/146/194 177/154/194 175/147/194
f 107/151/195 151/153/195 108/145/195 127/155/195
f 157/152/196 156/156/196 149/157/196 150/158/196
f 150/158/197 151/153/197 157/152/197
f 130/159/198 129/160/198 111/161/198
f 155/162/199 154/163/199 146/164/199 147/165/199
f 147/165/200 148/166/200 155/162/200
f 122/167/201 156/156/201 157/152/201 107/151/201
f 133/168/202 152/169/202 131/170/202
f 140/171/203 117/172/203 114/173/203 137/174/203
f 153/149/204 154/163/204 122/175/204
f 140/171/205 139/176/205 141/177/205
f 155/162/206 122/167/206 154/163/206
f 137/174/207 136/178/207 138/179/207
f 144/148/208 145/180/208 153/149/208
f 122/167/209 155/162/209 156/156/209
f 138/179/210 139/176/210 140/171/210
f 135/181/211 136/178/211 137/174/211
f 134/182/212 137/174/212 114/173/212
f 135/181/213 134/182/213 115/143/213
f 122/175/214 117/183/214 153/149/214
f 132/184/215 131/170/215 112/185/215
f 179/186/216 168/187/216 167/188/216 177/154/216
f 181/144/217 169/189/217 168/187/217 179/186/217
f 107/151/218 109/190/218 114/191/218 117/172/218 122/175/218
f 151/153/219 126/192/219 108/145/219
f 145/180/220 146/164/220 154/163/220
f 110/146/221 111/161/221 129/160/221
f 152/169/222 133/168/222 134/182/222
f 131/170/223 130/159/223 111/161/223 112/185/223
f 133/168/224 132/184/224 113/193/224
f 112/185/225 113/193/225 132/184/225
f 153/149/226 117/183/226 142/194/226 143/150/226
f 134/182/227 133/168/227 113/193/227 115/143/227
f 143/150/228 120/141/228 144/148/228
f 115/143/229 116/195/229 135/181/229
f 130/159/230 131/170/230 109/196/230
f 118/140/231 119/197/231 141/177/231
f 139/176/232 118/140/232 141/177/232
f 119/197/233 120/141/233 143/150/233
f 142/194/234 141/177/234 119/197/234 143/150/234
f 120/141/235 121/198/235 144/148/235
f 146/164/236 123/138/236 147/165/236
f 121/198/237 123/138/237 146/164/237
f 145/180/238 144/148/238 121/198/238 146/164/238
f 123/138/239 124/199/239 147/165/239
f 149/157/240 125/135/240 150/158/240
f 124/199/241 125/135/241 149/157/241
f 148/166/242 147/165/242 124/199/242 149/157/242
f 125/135/243 126/192/243 150/158/243
f 151/153/244 150/158/244 126/192/244
f 137/174/245 138/179/245 140/171/245
f 166/200/246 173/201/246 189/137/246 175/147/246
f 160/185/247 179/186/247 177/154/247
f 180/202/248 168/187/248 169/189/248
f 161/143/249 181/144/249 179/186/249
f 182/203/250 169/189/250 170/204/250
f 162/140/251 183/142/251 181/144/251
f 184/205/252 170/204/252 171/206/252
f 163/141/253 185/207/253 183/142/253
f 186/208/254 171/206/254 172/209/254
f 164/138/255 187/139/255 185/207/255
f 188/210/256 172/209/256 173/201/256
f 165/135/257 189/137/257 187/139/257
f 174/211/258 173/201/258 166/200/258
f 128/212/259 127/155/259 110/146/259
f 168/187/260 180/202/260 178/213/260
f 185/207/261 171/206/261 170/204/261 183/142/261
f 187/139/262 172/209/262 171/206/262 185/207/262
f 189/137/263 173/201/263 172/209/263 187/139/263
f 108/145/264 110/146/264 127/155/264
f 189/137/265 158/145/265 175/147/265
f 114/191/266 109/196/266 131/170/266 152/169/266
f 166/200/267 176/214/267 174/215/267
f 131/170/268 132/184/268 133/168/268
f 178/213/269 167/188/269 168/187/269
f 169/189/270 182/203/270 180/202/270
f 170/204/271 184/205/271 182/203/271
f 171/206/272 186/208/272 184/205/272
f 172/209/273 188/210/273 186/208/273
f 134/182/274 135/181/274 137/174/274
f 173/201/275 174/211/275 188/210/275
f 140/171/276 142/194/276 117/183/276
f 167/188/277 178/213/277 176/214/277
f 159/146/278 160/185/278 177/154/278
f 140/171/279 141/177/279 142/194/279
f 136/178/280 135/181/280 116/195/280
f 128/212/281 130/159/281 109/196/281
f 145/180/282 154/163/282 153/149/282
f 177/154/283 167/188/283 166/200/283 175/147/283
f 163/141/284 164/138/284 185/207/284
f 148/166/285 156/156/285 155/162/285
f 160/185/286 161/143/286 179/186/286
f 148/166/287 149/157/287 156/156/287
f 183/142/288 170/204/288 169/189/288 181/144/288
f 176/214/289 166/200/289 167/188/289
f 128/212/290 109/190/290 107/216/290 127/155/290
f 129/160/291 128/212/291 110/146/291
f 128/212/292 129/160/292 130/159/292
f 152/169/293 134/182/293 114/173/293
