# Blender 4.5.3 LTS
# www.blender.org
mtllib SoybeanFlower_open_white_optim.mtl
o petals
v 0.482137 0.148564 -0.147778
v 0.379403 0.124668 -0.337406
v 0.418620 0.240987 -0.259189
v 0.475695 0.315698 -0.127915
v 0.477705 0.234150 0.009395
v 0.432134 0.039420 0.006694
v 0.414831 -0.069403 -0.118441
v 0.378369 -0.002470 -0.323114
v 0.516609 0.126980 0.164152
v 0.390266 0.196533 0.283169
v 0.477664 0.280473 0.151313
v 0.480097 0.233405 0.009016
v 0.434653 0.036406 0.016301
v 0.417349 -0.070566 0.132828
v 0.382193 -0.008430 0.320876
v 0.574460 0.018840 0.084293
v 0.709635 -0.096713 0.059198
v 0.539407 0.035817 -0.002094
v 0.435101 0.053612 0.016439
v 0.425705 -0.073760 0.130275
v 0.625299 -0.074647 0.118768
v 0.702187 -0.120437 0.088956
v 0.574460 0.015682 -0.080110
v 0.606020 0.005750 -0.004557
v 0.451571 0.055279 0.013482
v 0.428056 -0.065618 -0.120942
v 0.697296 -0.105495 -0.100373
v 0.731527 -0.123906 -0.072906
v 0.718421 -0.114350 -0.040711
v 0.356915 0.015773 0.002894
v 0.356915 0.015773 0.002894
v 0.349788 -0.004776 -0.005588
v 0.356372 0.014205 -0.000352
v 0.354827 0.009753 -0.003103
v 0.352515 0.003087 -0.004942
v 0.351511 0.000360 0.011397
v 0.356915 0.015779 0.004966
v 0.353579 0.006266 0.010907
v 0.355332 0.011268 0.009513
v 0.356504 0.014609 0.007427
v 0.348811 -0.007584 -0.005588
v 0.342643 -0.025135 0.001753
v 0.346450 -0.014340 -0.005029
v 0.344449 -0.020036 -0.003438
v 0.343112 -0.023822 -0.001056
v 0.342643 -0.025111 0.004649
v 0.348313 -0.008795 0.011397
v 0.343075 -0.023858 0.007231
v 0.344304 -0.020321 0.009420
v 0.346143 -0.015024 0.010883
v 0.436215 0.024007 -0.009340
v 0.356372 0.014205 -0.000352
v 0.362649 -0.002620 -0.010018
v 0.354827 0.009753 -0.003103
v 0.352515 0.003087 -0.004942
v 0.349788 -0.004776 -0.005588
v 0.627562 0.015202 -0.004666
v 0.512087 0.034321 0.009053
v 0.356915 0.015779 0.004966
v 0.356504 0.014609 0.007427
v 0.663904 -0.011412 0.030000
v 0.355332 0.011268 0.009513
v 0.412429 0.012559 0.019900
v 0.353579 0.006266 0.010907
v 0.351511 0.000360 0.011397
v 0.599280 -0.180134 0.009171
v 0.342643 -0.025135 0.001753
v 0.343112 -0.023822 -0.001056
v 0.344449 -0.020036 -0.003438
v 0.398440 -0.059300 -0.016104
v 0.611541 -0.170178 -0.018110
v 0.346450 -0.014340 -0.005029
v 0.348811 -0.007584 -0.005588
v 0.342643 -0.025111 0.004649
v 0.375961 -0.053133 0.016366
v 0.343075 -0.023858 0.007231
v 0.600392 -0.164162 0.025476
v 0.344304 -0.020321 0.009420
v 0.346143 -0.015024 0.010883
v 0.348313 -0.008795 0.011397
v 0.675262 -0.037394 -0.021678
v 0.691021 -0.012256 0.006784
v 0.691099 -0.139238 0.015078
v 0.479456 0.148937 -0.147644
v 0.519284 0.126648 0.164328
v 0.573735 0.017860 0.083511
v 0.575160 0.016671 -0.080890
v 0.444121 0.001290 -0.016285
v 0.626441 0.013860 -0.004567
v 0.511985 0.034570 0.003046
v 0.353318 0.016505 0.006228
v 0.655654 -0.007276 0.027293
v 0.454842 0.008099 0.021604
v 0.619928 -0.171649 0.027190
v 0.577385 -0.168281 -0.004681
v 0.341224 -0.024342 -0.002803
v 0.413536 -0.056250 -0.016886
v 0.617677 -0.163683 -0.017131
v 0.420055 -0.079188 0.017508
v 0.341801 -0.024728 0.009288
v 0.551139 -0.145247 0.019117
v 0.690718 -0.014146 0.006142
v 0.675182 -0.043358 -0.020480
v 0.688940 -0.135398 0.018082
vn 0.8776 0.0260 -0.4787
vn 0.8947 0.0866 -0.4383
vn 0.9993 0.0376 0.0077
vn 0.9621 -0.2272 0.1509
vn 0.9537 -0.2795 0.1112
vn 0.9104 -0.3169 -0.2658
vn 0.8808 -0.0600 -0.4696
vn -0.7323 -0.2391 -0.6376
vn -0.9686 -0.2405 0.0630
vn -0.9041 0.2221 0.3651
vn -0.8820 0.4050 0.2408
vn -0.8293 0.4657 -0.3089
vn -0.7109 -0.1001 -0.6962
vn 0.6345 0.7655 -0.1070
vn 0.1870 0.9755 0.1158
vn -0.1880 0.6622 0.7254
vn 0.0551 0.3717 0.9267
vn 0.5634 0.5377 0.6272
vn 0.5851 0.5564 0.5900
vn -0.3051 -0.9523 0.0023
vn 0.2377 -0.7425 0.6262
vn -0.1136 -0.2749 0.9547
vn -0.6366 -0.6996 0.3245
vn -0.6623 -0.7477 -0.0477
vn -0.6863 -0.7008 0.1945
vn 0.9895 -0.1445 -0.0000
vn 0.8854 -0.0298 -0.4639
vn -0.6449 -0.7642 0.0062
vn -0.1962 -0.0125 0.9805
vn -0.3452 -0.1365 0.9285
vn -0.5068 -0.3195 0.8007
vn -0.6669 -0.6204 0.4127
vn -0.0187 -0.0179 -0.9997
vn 0.4517 -0.2399 -0.8593
vn -0.4109 -0.7813 -0.4698
vn 0.1368 -0.0861 0.9869
vn -0.0526 -0.0245 0.9983
vn -0.0413 -0.0124 0.9991
vn 0.1979 0.8667 0.4579
vn -0.3486 0.1962 -0.9165
vn -0.0274 0.0932 -0.9953
vn -0.2612 0.3398 -0.9035
vn 0.3805 0.5784 -0.7216
vn -0.1564 0.8993 -0.4084
vn 0.0509 0.7667 -0.6400
vn -0.1037 0.9946 -0.0028
vn 0.2678 -0.6973 0.6648
vn 0.6504 0.0499 0.7579
vn -0.8836 -0.0168 0.4680
vn -0.8993 -0.0713 0.4316
vn -0.9997 -0.0227 0.0012
vn -0.9645 0.2276 -0.1342
vn -0.9575 0.2697 -0.1022
vn -0.9150 0.3060 0.2631
vn -0.8861 0.0589 0.4597
vn 0.7258 0.2506 0.6406
vn 0.9645 0.2552 -0.0679
vn 0.8986 -0.2213 -0.3788
vn 0.8760 -0.4130 -0.2491
vn 0.8232 -0.4751 0.3109
vn 0.7032 0.1017 0.7036
vn -0.6321 -0.7694 0.0921
vn -0.1889 -0.9736 -0.1285
vn 0.1806 -0.6628 -0.7267
vn -0.0549 -0.3822 -0.9225
vn -0.5657 -0.5496 -0.6148
vn -0.5788 -0.5609 -0.5920
vn 0.3066 0.9517 0.0122
vn -0.2450 0.7418 -0.6243
vn 0.1124 0.2651 -0.9576
vn 0.6398 0.6927 -0.3330
vn 0.6663 0.7440 0.0504
vn 0.6908 0.7005 -0.1791
vn -0.8886 0.0578 0.4551
vn 0.5713 0.8207 -0.0011
vn 0.3687 0.8373 -0.4037
vn 0.2233 0.4222 0.8786
vn -0.4386 0.8804 0.1805
vn -0.0567 0.9821 0.1794
vn 0.4328 0.7857 0.4420
vn 0.1079 -0.0228 -0.9939
vn 0.0299 0.0350 -0.9989
vn 0.0596 -0.6561 -0.7523
vn -0.3441 -0.8965 -0.2792
vn -0.1886 -0.8892 -0.4169
vn 0.0869 -0.6269 0.7742
vn -0.3557 -0.5191 0.7772
vn -0.5259 -0.0757 -0.8472
vn -0.2720 -0.0782 -0.9591
vn -0.9442 0.3294 -0.0033
vn -0.4908 -0.8529 -0.1778
vn -0.3519 -0.6566 0.6671
vn -0.3150 0.0316 -0.9486
vn -0.5633 -0.7848 -0.2584
vn -0.4508 -0.3557 -0.8187
vn 0.4103 -0.9005 -0.1442
vn -0.1405 0.0277 0.9897
vn -0.0382 0.9381 0.3443
vn -0.1640 0.1384 0.9767
vn -0.1765 0.3212 0.9304
vn 0.0046 0.4291 0.9033
vn -0.1603 0.5627 0.8110
vn 0.3205 0.8833 0.3422
vn -0.1845 0.9568 0.2245
vn -0.1465 0.4511 -0.8804
vn -0.0240 0.0917 -0.9955
vn 0.1182 -0.0346 -0.9924
vn 0.0386 0.3390 -0.9400
vn -0.3411 0.1187 -0.9325
vn 0.9606 -0.2724 -0.0545
vn 0.4264 0.8379 -0.3407
vn -0.5099 0.2665 0.8179
vn 0.4917 0.7646 0.4167
vn -0.1476 0.0327 -0.9885
vn 0.0310 0.0357 -0.9989
vn 0.1692 -0.1685 0.9711
vn -0.0182 -0.5473 -0.8367
vn 0.0133 0.0089 0.9999
vn -0.0355 -0.3562 0.9338
vt 0.500000 0.500000
vt 0.437194 0.987507
vt 0.118584 0.811855
vt 0.015893 0.420100
vt 0.154706 0.142769
vt 0.854855 0.147317
vt 0.998896 0.494448
vt 0.796156 0.892573
vt 0.275455 0.918562
vt 0.019034 0.473737
vt 0.150766 0.144509
vt 0.855116 0.147491
vt 0.998952 0.494731
vt 0.825052 0.870503
vt 0.776564 0.894523
vt 0.180466 0.876285
vt 0.014831 0.574558
vt 0.291529 0.053919
vt 0.615200 0.022915
vt 0.966653 0.483486
vt 0.356963 0.971548
vt 0.046740 0.655075
vt 0.309562 0.046639
vt 0.789630 0.103734
vt 0.976570 0.511500
vt 0.834824 0.866068
vt 0.224327 0.500000
vt 0.266957 0.500000
vt 0.255817 0.726299
vt 0.590073 0.696803
vt 0.771847 0.716578
vt 0.780347 0.500000
vt 0.816569 0.500000
vt 0.875000 0.500000
vt 0.625000 0.250000
vt 0.566569 0.250000
vt 0.530347 0.250000
vt 0.530347 0.250000
vt 0.474327 0.250000
vt 0.474327 0.250000
vt 0.308303 0.500000
vt 0.308303 0.500000
vt 0.375000 0.500000
vt 0.441697 0.500000
vt 0.483043 0.500000
vt 0.180829 0.565273
vt 0.436316 0.250000
vt 0.386608 0.209094
vt 0.375000 0.250000
vt 0.186316 0.500000
vt 0.125000 0.500000
vt 0.377678 0.580209
vt 0.329961 0.691286
vt 0.230973 0.688425
vt 0.398358 0.026871
vt 0.605710 0.072554
vt 0.384901 0.067292
vt 0.603133 0.180966
vt 0.784228 0.620416
vt 0.852060 0.686192
vt 0.742089 0.670952
vt 0.547931 0.500000
vt 0.500155 0.500000
vt 0.547915 0.542643
vt 0.708468 0.574248
vt 0.625000 0.500000
vt 0.702069 0.500000
vt 0.749845 0.500000
vt 0.152383 0.682435
vt 0.625000 0.024174
vt 0.581150 0.695954
vt 0.657190 0.750000
vt 0.745877 0.718415
vt 0.223015 0.504622
vt 0.180272 0.600278
vt 0.368222 0.514968
vt 0.183342 0.671027
vt 0.188730 0.699391
vt 0.273343 0.675507
vt 0.332547 0.698866
vt 0.436090 0.585785
vt 0.238042 0.729593
vt 0.387725 0.098571
vt 0.608796 0.076061
vt 0.389646 0.052054
vt 0.400652 0.150260
vt 0.591137 0.148170
vt 0.875000 0.603663
vt 0.774519 0.501347
vt 0.762314 0.620929
vt 0.848780 0.684021
vt 0.740780 0.671048
vt 0.595996 0.592290
vt 0.409694 0.028655
vt 0.625000 0.375155
vt 0.615497 0.422931
vt 0.588434 0.463434
vt 0.547931 0.490497
vt 0.441697 0.491776
vt 0.406645 0.468355
vt 0.383224 0.433303
vt 0.375000 0.391957
vt 0.375000 0.349327
vt 0.382561 0.311316
vt 0.404092 0.279092
vt 0.436316 0.257561
vt 0.566569 0.257205
vt 0.597277 0.277723
vt 0.617795 0.308431
vt 0.625000 0.344653
vt 0.855366 0.565696
vt 0.390011 0.348808
vt 0.606693 0.243890
vt 0.438497 0.482843
vt 0.612426 0.351159
s 0
usemtl Material.002
f 1/1/1 2/2/1 3/3/1
f 1/1/2 3/3/2 4/4/2
f 1/1/3 4/4/3 5/5/3
f 1/1/4 5/5/4 6/6/4
f 1/1/5 6/6/5 7/7/5
f 1/1/6 7/7/6 8/8/6
f 1/1/7 8/8/7 2/2/7
f 9/1/8 10/9/8 11/10/8
f 9/1/9 11/10/9 12/11/9
f 9/1/10 12/11/10 13/12/10
f 9/1/11 13/12/11 14/13/11
f 9/1/12 14/13/12 15/14/12
f 9/1/13 15/14/13 10/9/13
f 16/1/14 17/15/14 18/16/14
f 16/1/15 18/16/15 19/17/15
f 16/1/16 19/17/16 20/18/16
f 16/1/17 20/18/17 21/19/17
f 16/1/18 21/19/18 22/20/18
f 16/1/19 22/20/19 17/15/19
f 23/1/20 24/21/20 25/22/20
f 23/1/21 25/22/21 26/23/21
f 23/1/22 26/23/22 27/24/22
f 23/1/23 27/24/23 28/25/23
f 23/1/24 28/25/24 29/26/24
f 23/1/25 29/26/25 24/21/25
f 84/1/49 3/3/49 2/2/49
f 84/1/50 4/4/50 3/3/50
f 84/1/51 5/5/51 4/4/51
f 84/1/52 6/6/52 5/5/52
f 84/1/53 7/7/53 6/6/53
f 84/1/54 8/8/54 7/7/54
f 84/1/55 2/2/55 8/8/55
f 85/1/56 11/10/56 10/9/56
f 85/1/57 12/11/57 11/10/57
f 85/1/58 13/12/58 12/11/58
f 85/1/59 14/13/59 13/12/59
f 85/1/60 15/14/60 14/13/60
f 85/1/61 10/9/61 15/14/61
f 86/1/62 18/16/62 17/15/62
f 86/1/63 19/17/63 18/16/63
f 86/1/64 20/18/64 19/17/64
f 86/1/65 21/19/65 20/18/65
f 86/1/66 22/20/66 21/19/66
f 86/1/67 17/15/67 22/20/67
f 87/1/68 25/22/68 24/21/68
f 87/1/69 26/23/69 25/22/69
f 87/1/70 27/24/70 26/23/70
f 87/1/71 28/25/71 27/24/71
f 87/1/72 29/26/72 28/25/72
f 87/1/73 24/21/73 29/26/73
usemtl Material.003
f 46/27/26 67/28/26 74/27/26
f 83/29/27 81/30/27 82/31/27
f 59/32/26 40/33/26 60/33/26
f 60/33/26 39/34/26 62/34/26
f 62/35/26 38/36/26 64/36/26
f 64/36/26 36/37/26 65/38/26
f 80/39/26 36/37/26 47/40/26
f 67/28/26 45/41/26 68/42/26
f 68/42/26 44/43/26 69/43/26
f 69/43/26 43/44/26 72/44/26
f 72/44/26 41/45/26 73/45/26
f 67/28/28 75/46/28 74/27/28
f 50/47/26 80/39/26 47/40/26
f 79/47/29 75/48/29 80/39/29
f 49/49/26 79/47/26 50/47/26
f 78/49/30 75/48/30 79/47/30
f 48/50/26 78/51/26 49/51/26
f 76/50/31 75/46/31 78/51/31
f 46/27/26 76/50/26 48/50/26
f 74/27/32 75/46/32 76/50/32
f 70/52/33 81/30/33 71/53/33
f 83/29/34 71/53/34 81/30/34
f 70/52/35 71/53/35 66/54/35
f 83/55/36 61/56/36 77/57/36
f 63/58/37 75/48/37 77/57/37
f 61/56/38 63/58/38 77/57/38
f 58/59/39 61/60/39 57/61/39
f 35/62/26 56/63/26 32/63/26
f 53/64/40 56/63/40 55/62/40
f 81/30/41 70/52/41 51/65/41
f 34/66/26 55/62/26 35/62/26
f 54/66/42 53/64/42 55/62/42
f 33/67/26 54/66/26 34/66/26
f 82/31/43 81/30/43 57/61/43
f 31/68/26 52/67/26 33/67/26
f 30/68/44 51/65/44 52/67/44
f 57/61/45 51/65/45 58/59/45
f 41/45/26 56/63/26 73/45/26
f 31/68/26 59/32/26 30/68/26
f 59/32/46 51/65/46 30/68/46
f 83/29/47 77/69/47 66/54/47
f 82/70/48 61/56/48 83/55/48
f 103/71/74 104/72/74 102/73/74
f 100/74/75 99/75/75 96/76/75
f 101/77/76 94/78/76 95/79/76
f 98/80/77 97/81/77 95/79/77
f 104/82/78 98/80/78 94/78/78
f 98/80/79 95/79/79 94/78/79
f 97/81/80 96/76/80 99/75/80
f 101/83/81 92/84/81 94/85/81
f 99/86/82 93/87/82 101/83/82
f 93/88/83 91/89/83 90/90/83
f 102/73/84 92/91/84 89/92/84
f 92/91/85 90/90/85 89/92/85
f 91/89/86 88/93/86 90/90/86
f 103/71/87 102/73/87 89/92/87
f 102/70/88 104/94/88 92/84/88
f 46/27/26 42/28/26 67/28/26
f 53/64/89 70/52/89 69/43/89 72/44/89
f 31/95/90 33/96/90 34/97/90 35/98/90 32/63/90 41/45/90 43/99/90 44/100/90 45/101/90 42/102/90 46/103/90 48/104/90 49/105/90 50/106/90 47/40/90 36/37/90 38/107/90 39/108/90 40/109/90 37/110/90
f 59/32/26 37/32/26 40/33/26
f 60/33/26 40/33/26 39/34/26
f 62/35/26 39/35/26 38/36/26
f 64/36/26 38/36/26 36/37/26
f 80/39/26 65/38/26 36/37/26
f 67/28/26 42/28/26 45/41/26
f 68/42/26 45/41/26 44/43/26
f 69/43/26 44/43/26 43/44/26
f 72/44/26 43/44/26 41/45/26
f 70/52/91 66/54/91 75/46/91
f 50/47/26 79/47/26 80/39/26
f 49/49/26 78/49/26 79/47/26
f 48/50/26 76/50/26 78/51/26
f 46/27/26 74/27/26 76/50/26
f 75/46/92 66/54/92 77/69/92
f 72/44/93 73/45/93 53/64/93
f 70/52/94 75/46/94 67/28/94 68/42/94
f 68/42/95 69/43/95 70/52/95
f 83/29/96 66/54/96 71/53/96
f 80/39/97 75/48/97 63/58/97 65/38/97
f 63/111/98 51/65/98 59/32/98 60/33/98
f 64/36/99 65/38/99 63/58/99
f 62/35/100 64/36/100 63/58/100
f 58/59/101 63/111/101 61/60/101
f 60/33/102 62/34/102 63/111/102
f 82/31/103 57/61/103 61/60/103
f 51/65/104 63/111/104 58/59/104
f 53/64/105 54/66/105 52/67/105 51/65/105
f 35/62/26 55/62/26 56/63/26
f 53/64/106 51/65/106 70/52/106
f 34/66/26 54/66/26 55/62/26
f 33/67/26 52/67/26 54/66/26
f 93/87/107 99/86/107 100/112/107 91/113/107
f 51/65/108 57/61/108 81/30/108
f 31/68/26 30/68/26 52/67/26
f 41/45/26 32/63/26 56/63/26
f 73/45/109 56/63/109 53/64/109
f 31/68/26 37/32/26 59/32/26
f 96/114/110 91/115/110 100/112/110
f 95/79/111 99/75/111 101/77/111
f 104/82/112 103/71/112 98/80/112
f 95/79/113 97/81/113 99/75/113
f 104/94/114 94/85/114 92/84/114
f 101/83/115 93/87/115 92/84/115
f 88/93/116 91/89/116 96/114/116 97/81/116
f 92/91/117 93/88/117 90/90/117
f 103/71/118 88/93/118 97/81/118 98/80/118
f 103/71/119 89/92/119 90/90/119 88/93/119
o sepal
v 0.257288 0.007909 0.001977
v 0.401750 0.020869 0.001977
v 0.256199 0.000450 -0.002275
v 0.255109 -0.007010 0.001977
v 0.396558 -0.065766 0.001978
v 0.399822 -0.054131 0.020707
v 0.256199 0.000450 0.006229
v 0.415877 0.006221 0.019188
v 0.275457 -0.024350 0.007060
v 0.330672 -0.044626 0.014731
v 0.333652 -0.033714 0.021064
v 0.277299 -0.011739 0.014249
v 0.334038 -0.018944 0.024492
v 0.335589 -0.003122 0.024492
v 0.279904 0.006094 0.014249
v 0.337709 0.011394 0.021064
v 0.339332 0.022505 0.014731
v 0.260359 -0.006755 0.007488
v 0.260971 -0.002564 0.008478
v 0.261634 0.001973 0.008478
v 0.262246 0.006164 0.007488
v -0.000089 0.001739 -0.008000
v 0.258881 -0.002406 -0.007391
v 0.258881 -0.006735 -0.003061
v -0.000089 -0.006261 0.000000
v 0.258881 -0.006735 0.003061
v 0.258881 -0.002406 0.007391
v -0.000089 0.001739 0.008000
v 0.258881 0.003717 0.007391
v 0.258881 0.008047 0.003061
v -0.000089 0.009739 0.000000
v 0.258881 0.008047 -0.003061
v 0.258881 0.003717 -0.007391
v 0.198628 0.019274 -0.008000
v 0.111439 0.023596 -0.005657
v 0.111439 0.023596 0.005657
v 0.111439 0.034933 0.005657
v 0.111439 0.034933 -0.005657
v 0.198623 0.013598 -0.005657
v 0.198622 0.011251 0.000000
v 0.198623 0.013598 0.005657
v 0.198628 0.019274 0.008000
v 0.198635 0.024955 0.005657
v 0.198637 0.027308 0.000000
v 0.198635 0.024955 -0.005657
vn -0.0437 -0.3812 -0.9235
vn 0.0436 0.3809 -0.9236
vn 0.2231 0.6893 0.6893
vn 0.3045 0.9525 -0.0000
vn -0.2860 -0.9582 -0.0000
vn -0.2038 -0.6923 0.6923
vn 0.0101 -0.0000 -0.9999
vn 0.1051 0.9182 0.3820
vn -0.1929 -0.4645 -0.8643
vn -0.2831 -0.8858 -0.3677
vn 0.8878 -0.1329 -0.4407
vn -0.2020 -0.4862 -0.8502
vn -0.2096 0.0228 0.9775
vn -0.2216 -0.3116 0.9240
vn -0.0639 -0.2240 0.9725
vn -0.0448 0.4997 -0.8651
vn -0.0778 0.8671 -0.4919
vn -0.3954 0.0578 0.9167
vn -0.1920 0.6940 -0.6940
vn -0.1053 -0.9185 0.3812
vn -0.1920 0.6940 0.6940
vn 0.0382 0.2243 0.9738
vn -0.1269 -0.3784 -0.9169
vn 0.1384 0.8074 0.5736
vn 0.2231 0.6893 -0.6893
vn 0.0436 0.3809 0.9236
vn -0.1200 0.3667 0.9226
vn 0.0101 -0.0000 0.9999
vn 0.0630 0.0053 0.9980
vn -0.2038 -0.6923 -0.6923
vn 0.0532 0.4887 0.8709
vn -0.0437 -0.3812 0.9235
vn -0.1253 0.9332 0.3368
vn -0.0000 -0.0000 -1.0000
vn -0.2831 -0.8858 0.3677
vn -0.1269 -0.3784 0.9169
vn 0.1071 0.3790 0.9192
vn 0.2658 0.8901 0.3703
vn -0.4313 0.2665 0.8619
vn 0.2658 0.8901 -0.3703
vn -0.0881 0.9961 -0.0000
vn -0.2250 0.8522 0.4723
vn 0.1071 0.3790 -0.9192
vn -0.0000 -0.0000 1.0000
vn 0.0295 -0.0018 -0.9996
vn 0.1517 -0.6989 0.6989
vn 0.1051 0.9182 -0.3820
vn -0.4895 -0.1320 0.8619
vn -0.3103 -0.4124 0.8565
vn 0.1517 -0.6989 -0.6989
vn -0.3257 -0.9364 -0.1306
vn -0.1053 -0.9185 -0.3812
vn -0.5794 0.4659 0.6687
vn -0.4049 -0.1537 0.9013
vn -0.2899 -0.2711 0.9179
vn -0.1602 -0.8257 0.5409
vn -0.3440 0.2631 0.9013
vn -0.3778 -0.8755 0.3013
vn -0.1398 -0.4682 0.8725
vn 0.0878 -0.9961 -0.0000
vn -0.2000 -0.2165 0.9556
vn -0.1357 0.2464 0.9596
vn -0.6885 -0.2807 0.6687
vn -0.1865 0.5070 0.8415
vn -0.9895 0.1445 -0.0000
vt 1.000000 0.874978
vt 0.875000 0.874978
vt 0.875000 0.243616
vt 0.125000 0.874978
vt 0.125000 0.243616
vt 0.437500 1.000000
vt 0.312500 1.000000
vt 0.375000 0.874978
vt 0.187500 1.000000
vt 0.250000 0.874978
vt 0.812500 1.000000
vt 0.687500 1.000000
vt 0.750000 0.874978
vt 0.562500 1.000000
vt 0.625000 0.874978
vt 0.000000 0.874978
vt 0.062500 1.000000
vt 0.937500 1.000000
vt 0.375000 0.243616
vt 0.500000 1.000000
vt 0.750000 0.010000
vt 0.990000 0.250000
vt 0.250000 0.490000
vt 0.080294 0.419706
vt 0.080294 0.080294
vt 0.250000 0.010000
vt 0.437500 0.663265
vt 0.218750 0.574534
vt 0.281250 0.574534
vt 0.281250 0.829932
vt 0.218750 0.829932
vt 0.187500 0.663265
vt 0.343750 0.829932
vt 0.000000 0.500000
vt 0.093750 0.829932
vt 0.750000 0.490000
vt 0.250000 0.500000
vt 0.000000 0.000000
vt 0.250000 0.000000
vt 0.625000 0.243616
vt 0.500000 0.000000
vt 0.156250 0.829932
vt 1.000000 1.000000
vt 0.500000 0.874978
vt 0.312500 0.663265
vt 0.125000 1.000000
vt 0.156250 0.574534
vt 0.750000 0.000000
vt 0.343750 0.574534
vt 0.510000 0.250000
vt 0.406250 0.829932
vt 0.500000 0.500000
vt 0.375000 1.000000
s 0
usemtl Material.004
f 109/135/128 108/136/128 107/137/128
f 106/138/130 112/139/130 110/140/130 109/141/130
f 113/142/131 108/136/131 109/141/131
f 124/143/132 123/144/132 117/145/132 118/146/132
f 118/146/133 119/147/133 124/143/133
f 117/145/134 115/148/134 110/140/134
f 107/137/135 105/149/135 106/138/135
f 121/150/136 106/138/136 105/151/136
f 124/143/137 111/152/137 123/144/137
f 120/157/141 118/146/141 112/139/141
f 121/150/143 112/139/143 106/158/143
f 116/160/146 117/145/146 123/144/146
f 118/146/148 117/145/148 110/140/148 112/139/148
f 120/157/150 112/161/150 121/150/150
f 119/147/152 120/157/152 125/162/152
f 111/152/158 124/143/158 125/162/158
f 121/150/161 105/151/161 125/162/161
f 107/137/164 106/138/164 109/141/164
f 122/164/167 123/144/167 111/165/167
f 115/148/168 122/164/168 114/166/168
f 109/141/170 114/166/170 113/142/170
f 111/152/172 125/162/172 105/151/172
f 116/160/173 123/144/173 122/164/173
f 122/164/174 108/167/174 113/142/174 114/166/174
f 110/140/175 114/166/175 109/141/175
f 119/147/176 125/162/176 124/143/176
f 115/148/177 116/160/177 122/164/177
f 114/166/178 110/168/178 115/148/178
f 116/160/180 115/148/180 117/145/180
f 119/147/181 118/146/181 120/157/181
f 111/165/182 108/167/182 122/164/182
f 125/162/183 120/157/183 121/150/183
f 111/165/184 105/151/184 107/137/184 108/136/184
usemtl Material.001
f 138/116/120 143/117/120 139/118/120
f 149/119/121 138/116/121 142/120/121
f 133/121/122 134/122/122 147/123/122
f 134/122/123 136/124/123 148/125/123
f 128/126/124 130/127/124 144/128/124
f 130/127/125 131/129/125 145/130/125
f 138/131/126 137/132/126 127/133/126
f 147/123/127 148/125/127 141/134/127
f 128/126/129 144/128/129 143/117/129
f 126/153/138 135/154/138 142/120/138
f 145/130/139 140/155/139 144/128/139
f 135/154/140 132/156/140 141/134/140
f 127/133/142 143/117/142 138/116/142
f 136/124/144 137/132/144 149/119/144
f 147/123/145 141/134/145 146/159/145
f 131/129/147 133/121/147 146/159/147
f 127/133/149 128/126/149 143/117/149
f 145/130/151 146/159/151 140/155/151
f 142/120/153 138/116/153 139/118/153 126/153/153
f 130/127/154 145/130/154 144/128/154
f 131/129/155 146/159/155 145/130/155
f 133/121/156 147/123/156 146/159/156
f 134/122/157 148/125/157 147/123/157
f 136/124/159 149/119/159 148/125/159
f 142/120/160 135/154/160 141/134/160 148/125/160
f 137/132/162 138/131/162 149/119/162
f 141/134/163 132/156/163 140/155/163 146/159/163
f 132/156/165 129/163/165 140/155/165
f 149/119/166 142/120/166 148/125/166
f 129/163/169 126/153/169 139/118/169
f 143/117/171 144/128/171 139/118/171
f 140/155/179 129/163/179 139/118/179 144/128/179
